<svg width="1500" height="1308" viewBox="0 0 1500 1308" fill="none" xmlns="http://www.w3.org/2000/svg">
<path d="M962.65 235.828C962.65 356.108 864.848 453.701 744.095 453.701C623.342 453.701 525.54 356.108 525.54 235.828C525.54 115.547 623.342 17.9538 744.095 17.9538C864.848 17.9538 962.65 115.547 962.65 235.828Z" fill="#2DA4C3" fill-opacity="0.83" stroke="#371404" stroke-width="35.3309"/>
<path d="M454.775 1071.99C454.775 1192.27 356.973 1289.87 236.22 1289.87C115.468 1289.87 17.6654 1192.27 17.6654 1071.99C17.6654 951.712 115.468 854.118 236.22 854.118C356.973 854.118 454.775 951.712 454.775 1071.99Z" fill="#B7410E" stroke="#371404" stroke-width="35.3309"/>
<path d="M1482.33 1071.99C1482.33 1192.27 1384.53 1289.87 1263.78 1289.87C1143.03 1289.87 1045.22 1192.27 1045.22 1071.99C1045.22 951.712 1143.03 854.118 1263.78 854.118C1384.53 854.118 1482.33 951.712 1482.33 1071.99Z" fill="#B7410E" stroke="#371404" stroke-width="35.3309"/>
<line y1="-17.6654" x2="646.738" y2="-17.6654" transform="matrix(0.785286 -0.619133 0.621337 0.783543 236.22 871.783)" stroke="#371404" stroke-width="35.3309"/>
<line y1="-17.6654" x2="656.053" y2="-17.6654" transform="matrix(0.792138 0.610342 -0.612553 0.79043 744.095 471.367)" stroke="#371404" stroke-width="35.3309"/>
<path d="M1016.23 647.158C1142.81 563.575 1182.1 476.849 1191.25 447.233C1198.35 424.166 1202.15 400.603 1201.07 377.549C1199.02 333.716 1176.37 293.116 1137.87 262.355C1123.44 250.835 1105.93 240.316 1086.63 235.827C1251.5 355.41 1050.4 526.657 923.572 601.95C796.752 677.242 798.562 742.196 798.562 742.196V749.585C798.562 749.585 798.56 754.698 798.889 762.646C770.381 756.847 747.83 756.834 747.83 756.834C747.83 756.834 725.279 756.847 696.782 762.646C697.111 754.698 697.112 749.585 697.112 749.585V742.196C697.112 742.196 698.923 677.242 572.102 601.95C445.282 526.657 244.17 355.41 409.041 235.827C389.745 240.316 372.235 250.835 357.804 262.355C319.307 293.116 296.651 333.716 294.606 377.549C293.525 400.603 297.32 424.166 304.441 447.233C313.584 476.849 352.881 563.575 479.443 647.158C527.388 678.821 576.79 711.832 613.771 786.501C613.771 786.514 613.794 786.538 613.794 786.551C590.186 778.349 527.598 762.148 413.046 768.138C413.046 768.138 430.64 829.378 563.031 853.742C554.382 841.611 533.521 819.587 484.412 791.077C484.412 791.077 560.032 809.668 588.212 857.722C588.212 857.722 550.339 890.95 550.186 891.077C541.055 899.024 535.485 905.967 531.466 916.521C527.435 927.114 528.399 939.563 532.571 950.041C536.707 960.43 543.404 970.082 551.477 978.767C588.212 1018.25 612.219 1044.92 612.219 1044.92C612.219 1044.92 646.122 1091.87 646.122 1123.87C646.122 1155.88 646.122 1172.8 646.122 1172.8C646.122 1172.8 668.72 1215.48 747.83 1225.09C826.94 1215.49 849.538 1172.8 849.538 1172.8C849.538 1172.8 849.538 1155.88 849.538 1123.87C849.538 1091.87 883.441 1044.92 883.441 1044.92C883.441 1044.92 907.448 1018.25 944.183 978.767C952.256 970.095 958.956 960.43 963.092 950.041C967.264 939.563 968.228 927.114 964.197 916.521C960.19 905.98 954.619 899.024 945.488 891.077C945.336 890.95 907.46 857.722 907.46 857.722C935.64 809.668 1011.25 791.077 1011.25 791.077C962.139 819.599 941.281 841.623 932.632 853.742C1065.02 829.378 1082.61 768.138 1082.61 768.138C968.062 762.148 905.474 778.349 881.866 786.551C881.878 786.525 881.889 786.514 881.889 786.501C918.882 711.832 968.274 678.821 1016.23 647.158Z" fill="black"/>
</svg>